<svg width="127" height="88" viewBox="0 0 127 88" fill="none" xmlns="http://www.w3.org/2000/svg">
<path d="M8.85983 0H78.1402C80.4891 0.00261537 82.7411 0.926472 84.4021 2.56888C86.0631 4.2113 86.9974 6.43814 87 8.76085V46.2392C86.9974 48.5619 86.0631 50.7887 84.4021 52.4311C82.7411 54.0735 80.4891 54.9974 78.1402 55H8.85983C6.51087 54.9974 4.25887 54.0735 2.5979 52.4311C0.93693 50.7887 0.00263956 48.5619 0 46.2392V8.76085C0.00263907 6.43814 0.93693 4.2113 2.5979 2.56888C4.25887 0.926472 6.51086 0.00261537 8.85983 0Z" fill="#F2F2F2"/>
<path d="M8.317 2H77.6829C79.3577 2.00189 80.9634 2.67354 82.1477 3.86758C83.332 5.06163 83.9981 6.68056 84 8.36919V46.6308C83.9981 48.3195 83.332 49.9384 82.1477 51.1324C80.9634 52.3265 79.3577 52.9981 77.6829 53H8.317C6.6422 52.9981 5.03653 52.3264 3.85228 51.1324C2.66802 49.9384 2.00188 48.3194 2 46.6308V8.36919C2.00187 6.68057 2.66801 5.06165 3.85227 3.86761C5.03653 2.67357 6.64219 2.00191 8.317 2Z" fill="white"/>
<path d="M9.53268 69C9.32922 68.9994 9.12788 68.9555 8.94019 68.8709C8.66005 68.7496 8.42042 68.54 8.25268 68.2695C8.08494 67.999 7.9969 67.6803 8.00008 67.355V53.6163L25 53L10.5999 68.5152C10.4606 68.6681 10.2946 68.7897 10.1114 68.8729C9.92819 68.9561 9.73148 68.9993 9.53268 69Z" fill="#F2F2F2"/>
<path d="M68.2645 12H16.7355C14.6725 12 13 13.567 13 15.5V15.5C13 17.433 14.6725 19 16.7355 19H68.2645C70.3275 19 72 17.433 72 15.5C72 13.567 70.3275 12 68.2645 12Z" fill="#F2F2F2"/>
<path d="M68.2645 24H16.7355C14.6725 24 13 25.567 13 27.5V27.5C13 29.433 14.6725 31 16.7355 31H68.2645C70.3275 31 72 29.433 72 27.5C72 25.567 70.3275 24 68.2645 24Z" fill="#F2F2F2"/>
<path d="M70.1378 36H16.8622C14.7291 36 13 37.567 13 39.5V39.5C13 41.433 14.7291 43 16.8622 43H70.1378C72.2709 43 74 41.433 74 39.5C74 37.567 72.2709 36 70.1378 36Z" fill="#F2F2F2"/>
<path d="M118.14 19H48.8598C46.5109 19.0027 44.2589 19.9433 42.5979 21.6156C40.9369 23.2879 40.0026 25.5552 40 27.9201V66.0799C40.0026 68.4448 40.9369 70.7121 42.5979 72.3844C44.2589 74.0567 46.5109 74.9973 48.8598 75H118.14C120.489 74.9973 122.741 74.0567 124.402 72.3844C126.063 70.7121 126.997 68.4448 127 66.0799V27.9201C126.997 25.5552 126.063 23.2879 124.402 21.6156C122.741 19.9433 120.489 19.0027 118.14 19Z" fill="#E6E6E6"/>
<path d="M117.683 22H48.3171C46.6423 22.0019 45.0366 22.6603 43.8523 23.831C42.668 25.0016 42.0019 26.5888 42 28.2443V65.7557C42.0019 67.4112 42.668 68.9984 43.8523 70.169C45.0366 71.3397 46.6423 71.9981 48.3171 72H117.683C119.358 71.9981 120.963 71.3396 122.148 70.169C123.332 68.9984 123.998 67.4112 124 65.7557V28.2443C123.998 26.5888 123.332 25.0016 122.148 23.831C120.963 22.6604 119.358 22.0019 117.683 22Z" fill="white"/>
<path d="M112.4 87.5152L98 72L115 72.6163V86.355C115.003 86.6803 114.915 86.999 114.747 87.2695C114.58 87.54 114.34 87.7496 114.06 87.8709C113.872 87.9555 113.671 87.9994 113.467 88C113.269 87.9993 113.072 87.9561 112.889 87.8729C112.705 87.7897 112.539 87.6681 112.4 87.5152Z" fill="#E6E6E6"/>
<path d="M67.5 52C69.9853 52 72 49.7614 72 47C72 44.2386 69.9853 42 67.5 42C65.0147 42 63 44.2386 63 47C63 49.7614 65.0147 52 67.5 52Z" fill="url(#paint0_linear_401_458)"/>
<path d="M83 52C85.7614 52 88 49.7614 88 47C88 44.2386 85.7614 42 83 42C80.2386 42 78 44.2386 78 47C78 49.7614 80.2386 52 83 52Z" fill="url(#paint1_linear_401_458)"/>
<path d="M99 52C101.761 52 104 49.7614 104 47C104 44.2386 101.761 42 99 42C96.2386 42 94 44.2386 94 47C94 49.7614 96.2386 52 99 52Z" fill="url(#paint2_linear_401_458)"/>
<defs>
<linearGradient id="paint0_linear_401_458" x1="67.5" y1="42" x2="67.5" y2="52" gradientUnits="userSpaceOnUse">
<stop stop-color="#665EC0"/>
<stop offset="1" stop-color="#7B5DCB"/>
</linearGradient>
<linearGradient id="paint1_linear_401_458" x1="83" y1="42" x2="83" y2="52" gradientUnits="userSpaceOnUse">
<stop stop-color="#665EC0"/>
<stop offset="1" stop-color="#7B5DCB"/>
</linearGradient>
<linearGradient id="paint2_linear_401_458" x1="99" y1="42" x2="99" y2="52" gradientUnits="userSpaceOnUse">
<stop stop-color="#665EC0"/>
<stop offset="1" stop-color="#7B5DCB"/>
</linearGradient>
</defs>
</svg>
