<svg width="436" height="412" viewBox="0 0 436 412" fill="none" xmlns="http://www.w3.org/2000/svg">
<path d="M31.6093 76.3953C16.5171 79.0867 6.13229 90.8964 4.45922 106.194C2.2988 125.949 0 159.751 0 214.15C0 268.55 2.2988 302.352 4.45922 322.107C6.13229 337.405 16.5171 349.214 31.6093 351.906C45.0229 354.296 65.1786 356.914 94.4842 358.676V393.855C94.4842 408.317 111.147 416.357 122.395 407.322L180.406 360.729C249.63 360.38 289.913 355.838 311.969 351.906C327.062 349.214 337.447 337.405 339.12 322.107C341.28 302.352 343.579 268.55 343.579 214.15C343.579 159.751 341.28 125.949 339.12 106.194C337.447 90.8964 327.062 79.0867 311.969 76.3953C289.014 72.3015 246.313 67.5488 171.79 67.5488C97.2648 67.5488 54.5657 72.3015 31.6093 76.3953Z" fill="#FAFAFA"/>
<path d="M367.397 16.0755C356.403 -4.02321 327.53 -4.0248 316.535 16.0726C316.535 16.072 316.533 16.0733 316.535 16.0726L305.712 35.8502C300.689 45.0375 293.134 52.5947 283.949 57.6207L264.172 68.4378C244.074 79.432 244.072 108.305 264.169 119.3L283.946 130.123C293.134 135.148 300.69 142.701 305.716 151.886C305.716 151.884 305.716 151.887 305.716 151.886L316.533 171.664C327.527 191.764 356.401 191.764 367.395 171.664L378.218 151.888C383.241 142.701 390.796 135.143 399.982 130.117L419.758 119.302C439.856 108.306 439.858 79.4348 419.761 68.4393C419.762 68.4393 419.76 68.4393 419.761 68.4393L399.984 57.6163C390.796 52.5933 383.239 45.0385 378.213 35.8531C378.214 35.8537 378.213 35.8525 378.213 35.8531L367.397 16.0755Z" fill="#FAFAFA"/>
<path d="M316.535 16.0726C327.53 -4.0248 356.403 -4.02321 367.397 16.0755L378.213 35.8531M316.535 16.0726C316.533 16.0733 316.535 16.072 316.535 16.0726ZM316.535 16.0726L305.712 35.8502C300.689 45.0375 293.134 52.5947 283.949 57.6207L264.172 68.4378C244.074 79.432 244.072 108.305 264.169 119.3L283.946 130.123C293.134 135.148 300.69 142.701 305.716 151.886M305.716 151.886C305.716 151.887 305.716 151.884 305.716 151.886ZM305.716 151.886L316.533 171.664C327.527 191.764 356.401 191.764 367.395 171.664L378.218 151.888C383.241 142.701 390.796 135.143 399.982 130.117L419.758 119.302C439.856 108.306 439.858 79.4348 419.761 68.4393M419.761 68.4393C419.76 68.4393 419.762 68.4393 419.761 68.4393ZM419.761 68.4393L399.984 57.6163C390.796 52.5933 383.239 45.0385 378.213 35.8531M378.213 35.8531C378.213 35.8525 378.214 35.8537 378.213 35.8531Z" stroke="#6F3FBE" stroke-width="1.79145"/>
<path fill-rule="evenodd" clip-rule="evenodd" d="M221.477 199.278C222.743 196.223 225.726 194.23 229.032 194.23H269.914C274.429 194.23 278.09 197.891 278.09 202.407V243.29C278.09 246.597 276.099 249.579 273.043 250.844C269.987 252.11 266.47 251.411 264.131 249.072L251.388 236.328L204.359 277.088C199.995 280.87 193.587 281.096 188.968 277.632L130.234 233.581L84.195 261.913C78.4268 265.463 70.872 263.663 67.3219 257.895C63.7718 252.125 65.5713 244.571 71.3395 241.022L124.486 208.314C128.777 205.675 134.245 205.927 138.274 208.949L195.77 252.072L234 218.939L223.249 208.189C220.912 205.85 220.212 202.333 221.477 199.278Z" fill="#775FC8"/>
</svg>
